# xmcd
#
# Track frame offsets: 
#        150
#        24832
#        43843
#        60257
#        84715
#        104410
#        116153
#        133489
#        149591
#        167998
#
# Disc length: 2517 seconds
#
# Revision: 0
# Processed by: cddbd v1.5.2PL0 Copyright (c) Steve Scherf et al.
# Submitted via: ExactAudioCopy v0.99pb5
#
DISCID=9209d30a
DTITLE=Михаил Кленовский - Облака
DYEAR=2005
DGENRE=Pop
TTITLE0=Дождь
TTITLE1=Облака
TTITLE2=Он-шпион
TTITLE3=Старый год
TTITLE4=Не любит
TTITLE5=Где-то
TTITLE6=Блюз ми бемоль
TTITLE7=Автозаправка
TTITLE8=Я хотел на минутку
TTITLE9=Олеся
EXTD=
EXTT0=
EXTT1=
EXTT2=
EXTT3=
EXTT4=
EXTT5=
EXTT6=
EXTT7=
EXTT8=
EXTT9=
PLAYORDER=
